<svg width="139" height="134" viewBox="0 0 139 134" fill="none" xmlns="http://www.w3.org/2000/svg">
<g filter="url(#filter0_d_258_10)">
<rect x="14" y="10" width="111" height="106" rx="20" fill="#E85D04"/>
<path d="M61.3625 63.904H51.2825V59.104L60.8825 36.4H66.6425V59.104H69.1385V63.904H66.6425V70H61.3625V63.904ZM61.3625 59.104V46H61.2665L56.0825 59.104H61.3625ZM77.5093 55.072H71.0773V51.328H77.5093V44.848H81.2533V51.328H87.6853V55.072H81.2533V61.648H77.5093V55.072Z" fill="white"/>
<path d="M33.7731 77H39.7731V79H35.9731V82.7H38.9931V84.7H35.9731V89H39.7731V91H33.7731V77ZM43.0178 83.84L40.5978 77H42.9178L44.3978 81.52H44.4378L45.9578 77H48.0378L45.6178 83.84L48.1578 91H45.8378L44.2378 86.12H44.1978L42.5578 91H40.4778L43.0178 83.84ZM49.2028 77H52.4428C53.5361 77 54.3561 77.2933 54.9028 77.88C55.4495 78.4667 55.7228 79.3267 55.7228 80.46V81.84C55.7228 82.9733 55.4495 83.8333 54.9028 84.42C54.3561 85.0067 53.5361 85.3 52.4428 85.3H51.4028V91H49.2028V77ZM52.4428 83.3C52.8028 83.3 53.0695 83.2 53.2428 83C53.4295 82.8 53.5228 82.46 53.5228 81.98V80.32C53.5228 79.84 53.4295 79.5 53.2428 79.3C53.0695 79.1 52.8028 79 52.4428 79H51.4028V83.3H52.4428ZM56.9177 77H62.9177V79H59.1177V82.7H62.1377V84.7H59.1177V89H62.9177V91H56.9177V77ZM64.1833 77H67.4433C68.5766 77 69.4033 77.2667 69.9233 77.8C70.4433 78.32 70.7033 79.1267 70.7033 80.22V81.08C70.7033 82.5333 70.2233 83.4533 69.2633 83.84V83.88C69.7966 84.04 70.1699 84.3667 70.3833 84.86C70.6099 85.3533 70.7233 86.0133 70.7233 86.84V89.3C70.7233 89.7 70.7366 90.0267 70.7633 90.28C70.7899 90.52 70.8566 90.76 70.9633 91H68.7233C68.6433 90.7733 68.5899 90.56 68.5633 90.36C68.5366 90.16 68.5233 89.8 68.5233 89.28V86.72C68.5233 86.08 68.4166 85.6333 68.2033 85.38C68.0033 85.1267 67.6499 85 67.1433 85H66.3833V91H64.1833V77ZM67.1833 83C67.6233 83 67.9499 82.8867 68.1633 82.66C68.3899 82.4333 68.5033 82.0533 68.5033 81.52V80.44C68.5033 79.9333 68.4099 79.5667 68.2233 79.34C68.0499 79.1133 67.7699 79 67.3833 79H66.3833V83H67.1833ZM72.2497 77H74.4497V91H72.2497V77ZM76.0973 77H82.0973V79H78.2973V82.7H81.3173V84.7H78.2973V89H82.0973V91H76.0973V77ZM83.363 77H86.123L88.263 85.38H88.303V77H90.263V91H88.003L85.363 80.78H85.323V91H83.363V77ZM94.9981 91.2C93.9448 91.2 93.1381 90.9 92.5781 90.3C92.0315 89.7 91.7581 88.8533 91.7581 87.76V80.24C91.7581 79.1467 92.0315 78.3 92.5781 77.7C93.1381 77.1 93.9448 76.8 94.9981 76.8C96.0515 76.8 96.8515 77.1 97.3981 77.7C97.9581 78.3 98.2381 79.1467 98.2381 80.24V81.72H96.1581V80.1C96.1581 79.2333 95.7915 78.8 95.0581 78.8C94.3248 78.8 93.9581 79.2333 93.9581 80.1V87.92C93.9581 88.7733 94.3248 89.2 95.0581 89.2C95.7915 89.2 96.1581 88.7733 96.1581 87.92V85.78H98.2381V87.76C98.2381 88.8533 97.9581 89.7 97.3981 90.3C96.8515 90.9 96.0515 91.2 94.9981 91.2ZM99.5544 77H105.554V79H101.754V82.7H104.774V84.7H101.754V89H105.554V91H99.5544V77Z" fill="white"/>
</g>
<defs>
<filter id="filter0_d_258_10" x="0" y="0" width="139" height="134" filterUnits="userSpaceOnUse" color-interpolation-filters="sRGB">
<feFlood flood-opacity="0" result="BackgroundImageFix"/>
<feColorMatrix in="SourceAlpha" type="matrix" values="0 0 0 0 0 0 0 0 0 0 0 0 0 0 0 0 0 0 127 0" result="hardAlpha"/>
<feOffset dy="4"/>
<feGaussianBlur stdDeviation="7"/>
<feComposite in2="hardAlpha" operator="out"/>
<feColorMatrix type="matrix" values="0 0 0 0 0 0 0 0 0 0 0 0 0 0 0 0 0 0 0.25 0"/>
<feBlend mode="normal" in2="BackgroundImageFix" result="effect1_dropShadow_258_10"/>
<feBlend mode="normal" in="SourceGraphic" in2="effect1_dropShadow_258_10" result="shape"/>
</filter>
</defs>
</svg>
