<svg width="78" height="105" viewBox="0 0 78 105" fill="none" xmlns="http://www.w3.org/2000/svg">
<path d="M3.74787 100H0.935369L6.05611 85.4545H9.30895L14.4368 100H11.6243L7.73935 88.4375H7.62571L3.74787 100ZM3.8402 94.2969H11.5107V96.4134H3.8402V94.2969ZM25.4134 90.0994C25.295 89.7159 25.1316 89.3726 24.9233 89.0696C24.7197 88.7618 24.4735 88.4991 24.1847 88.2812C23.9006 88.0634 23.5739 87.9001 23.2045 87.7912C22.8352 87.6776 22.4328 87.6207 21.9972 87.6207C21.2159 87.6207 20.5199 87.8172 19.9091 88.2102C19.2983 88.6032 18.8177 89.1809 18.4673 89.9432C18.1217 90.7008 17.9489 91.6241 17.9489 92.7131C17.9489 93.8116 18.1217 94.742 18.4673 95.5043C18.813 96.2666 19.2936 96.8466 19.9091 97.2443C20.5246 97.6373 21.2396 97.8338 22.054 97.8338C22.7926 97.8338 23.4318 97.6918 23.9716 97.4077C24.5161 97.1236 24.9351 96.7211 25.2287 96.2003C25.5223 95.6747 25.669 95.0592 25.669 94.3537L26.2656 94.446H22.3168V92.3864H28.2188V94.1335C28.2188 95.3788 27.9536 96.456 27.4233 97.3651C26.893 98.2741 26.1638 98.9749 25.2358 99.4673C24.3078 99.955 23.2424 100.199 22.0398 100.199C20.6998 100.199 19.5232 99.8982 18.5099 99.2969C17.5014 98.6908 16.7131 97.8314 16.1449 96.7188C15.5814 95.6013 15.2997 94.2756 15.2997 92.7415C15.2997 91.5672 15.4654 90.5185 15.7969 89.5952C16.133 88.6719 16.6018 87.8883 17.2031 87.2443C17.8045 86.5956 18.5099 86.1032 19.3196 85.767C20.1293 85.4261 21.0099 85.2557 21.9616 85.2557C22.7666 85.2557 23.517 85.3741 24.2131 85.6108C24.9091 85.8428 25.527 86.1742 26.0668 86.6051C26.6113 87.036 27.0587 87.5473 27.4091 88.1392C27.7595 88.7311 27.9891 89.3845 28.098 90.0994H25.4134ZM33.4016 85.4545V100H30.7667V85.4545H33.4016ZM36.255 100V85.4545H38.8899V97.7912H45.2962V100H36.255ZM50.218 85.4545V100H47.5831V85.4545H50.218ZM52.4322 87.6634V85.4545H64.0373V87.6634H59.5415V100H56.9279V87.6634H52.4322ZM66.3846 100H63.5721L68.6928 85.4545H71.9457L77.0735 100H74.261L70.3761 88.4375H70.2624L66.3846 100ZM66.4769 94.2969H74.1474V96.4134H66.4769V94.2969ZM69.3817 84.0199L67.2013 80.7741H69.7227L71.3065 84.0199H69.3817Z" fill="#E85D04"/>
<path d="M52.85 13.0233C54.6004 13.0233 56.2792 12.3372 57.5169 11.116C58.7546 9.89488 59.45 8.23862 59.45 6.51163C59.45 4.78464 58.7546 3.12838 57.5169 1.90721C56.2792 0.686044 54.6004 0 52.85 0C51.0996 0 49.4208 0.686044 48.1831 1.90721C46.9454 3.12838 46.25 4.78464 46.25 6.51163C46.25 8.23862 46.9454 9.89488 48.1831 11.116C49.4208 12.3372 51.0996 13.0233 52.85 13.0233ZM40.97 58.2791L44.27 43.9535L51.2 50.4651V70H57.8V45.5814L50.87 39.0698L52.85 29.3023C55.1109 31.8589 57.9005 33.9081 61.0312 35.3121C64.1619 36.7161 67.5611 37.4423 71 37.4419V30.9302C65.192 31.0279 59.78 28.0326 56.81 23.1163L53.51 17.907C52.322 15.9535 50.21 14.6512 47.9 14.6512C46.91 14.6512 46.25 14.9767 45.26 14.9767L28.1 22.1395V37.4419H34.7V26.3721L40.64 24.093L35.36 50.4651L19.19 47.2093L17.87 53.7209L40.97 58.2791ZM11.6 24.4186C10.7248 24.4186 9.88542 24.0756 9.26655 23.465C8.64768 22.8544 8.3 22.0263 8.3 21.1628C8.3 20.2993 8.64768 19.4712 9.26655 18.8606C9.88542 18.25 10.7248 17.907 11.6 17.907H21.5V24.4186H11.6ZM14.9 11.3953C14.0248 11.3953 13.1854 11.0523 12.5665 10.4417C11.9477 9.83116 11.6 9.00303 11.6 8.13953C11.6 7.27604 11.9477 6.44791 12.5665 5.83733C13.1854 5.22674 14.0248 4.88372 14.9 4.88372H31.4V11.3953H14.9ZM8.3 37.4419C7.42479 37.4419 6.58542 37.0988 5.96655 36.4883C5.34768 35.8777 5 35.0495 5 34.186C5 33.3226 5.34768 32.4944 5.96655 31.8838C6.58542 31.2733 7.42479 30.9302 8.3 30.9302H21.5V37.4419H8.3Z" fill="#E85D04"/>
</svg>
