<svg width="68" height="102" viewBox="0 0 68 102" fill="none" xmlns="http://www.w3.org/2000/svg">
<path d="M1.56747 97V82.4545H10.8857V84.6634H4.20241V88.6122H10.2464V90.821H4.20241V97H1.56747ZM26.2834 89.7273C26.2834 91.2945 25.9898 92.6368 25.4027 93.7543C24.8203 94.867 24.0249 95.7192 23.0163 96.3111C22.0125 96.9029 20.8738 97.1989 19.6001 97.1989C18.3265 97.1989 17.1854 96.9029 16.1768 96.3111C15.1731 95.7145 14.3776 94.8598 13.7905 93.7472C13.2081 92.6297 12.9169 91.2898 12.9169 89.7273C12.9169 88.16 13.2081 86.8201 13.7905 85.7074C14.3776 84.59 15.1731 83.7353 16.1768 83.1435C17.1854 82.5516 18.3265 82.2557 19.6001 82.2557C20.8738 82.2557 22.0125 82.5516 23.0163 83.1435C24.0249 83.7353 24.8203 84.59 25.4027 85.7074C25.9898 86.8201 26.2834 88.16 26.2834 89.7273ZM23.6342 89.7273C23.6342 88.6241 23.4614 87.6937 23.1158 86.9361C22.7749 86.1738 22.3014 85.5985 21.6953 85.2102C21.0893 84.8172 20.3909 84.6207 19.6001 84.6207C18.8094 84.6207 18.111 84.8172 17.505 85.2102C16.8989 85.5985 16.4231 86.1738 16.0774 86.9361C15.7365 87.6937 15.5661 88.6241 15.5661 89.7273C15.5661 90.8305 15.7365 91.7633 16.0774 92.5256C16.4231 93.2831 16.8989 93.8584 17.505 94.2514C18.111 94.6397 18.8094 94.8338 19.6001 94.8338C20.3909 94.8338 21.0893 94.6397 21.6953 94.2514C22.3014 93.8584 22.7749 93.2831 23.1158 92.5256C23.4614 91.7633 23.6342 90.8305 23.6342 89.7273ZM28.7745 97V82.4545H34.229C35.3465 82.4545 36.284 82.6487 37.0415 83.0369C37.8039 83.4252 38.3791 83.9697 38.7674 84.6705C39.1604 85.3665 39.3569 86.1785 39.3569 87.1065C39.3569 88.0393 39.158 88.849 38.7603 89.5355C38.3673 90.2173 37.7873 90.7453 37.0202 91.1193C36.2532 91.4886 35.311 91.6733 34.1935 91.6733H30.3086V89.4858H33.8384C34.4918 89.4858 35.0269 89.3958 35.4435 89.2159C35.8602 89.0312 36.168 88.7637 36.3668 88.4134C36.5704 88.0582 36.6722 87.6226 36.6722 87.1065C36.6722 86.5904 36.5704 86.1501 36.3668 85.7855C36.1632 85.4162 35.8531 85.1368 35.4364 84.9474C35.0198 84.7533 34.4824 84.6562 33.8242 84.6562H31.4094V97H28.7745ZM36.2887 90.4091L39.8896 97H36.9492L33.4123 90.4091H36.2887ZM41.5124 97V95.3594L48.9698 84.6634H41.4698V82.4545H52.2369V84.0952L44.7866 94.7912H52.2795V97H41.5124ZM56.6971 97H53.8846L59.0053 82.4545H62.2582L67.386 97H64.5735L60.6886 85.4375H60.5749L56.6971 97ZM56.7894 91.2969H64.4599V93.4134H56.7894V91.2969Z" fill="#E85D04"/>
<path d="M30.8208 54.2C32.9464 45.8 40.3786 39.8 48.9396 40.792C57.0901 41.736 63.5695 49.24 63.9799 58.168C64.0825 60.52 63.7893 62.776 63.159 64.872C62.7779 66.152 61.6344 67 60.3884 67H16.7304C9.33042 67 3.78045 59.6096 5.23171 51.6896L14.1533 3H31.7443L37.608 14.2L25.0451 24.008L21.4829 19M25.0597 24.008L31.7443 51" stroke="#E85D04" stroke-width="5" stroke-miterlimit="2" stroke-linecap="round" stroke-linejoin="round"/>
</svg>
