<svg width="125" height="112" viewBox="0 0 125 112" fill="none" xmlns="http://www.w3.org/2000/svg">
<path d="M62.7084 19.249H56.2917V22.4574C56.2917 23.3083 56.6298 24.1243 57.2314 24.726C57.8331 25.3277 58.6492 25.6657 59.5001 25.6657C60.351 25.6657 61.167 25.3277 61.7687 24.726C62.3704 24.1243 62.7084 23.3083 62.7084 22.4574V19.249Z" fill="#E85D04"/>
<path fill-rule="evenodd" clip-rule="evenodd" d="M40.25 6.41602V12.8327H43.4583V22.4577C43.4583 26.7122 45.1484 30.7925 48.1568 33.8009C51.1652 36.8092 55.2455 38.4993 59.5 38.4993C55.2455 38.4993 51.1652 40.1894 48.1568 43.1978C45.1484 46.2062 43.4583 50.2865 43.4583 54.541V64.166H40.25V70.5827H78.75V64.166H75.5417V54.541C75.5417 50.2865 73.8516 46.2062 70.8432 43.1978C67.8348 40.1894 63.7545 38.4993 59.5 38.4993C61.6066 38.4993 63.6926 38.0844 65.6389 37.2782C67.5851 36.4721 69.3536 35.2905 70.8432 33.8009C72.3328 32.3112 73.5144 30.5428 74.3206 28.5966C75.1267 26.6503 75.5417 24.5643 75.5417 22.4577V12.8327H78.75V6.41602H40.25ZM49.875 12.8327H69.125V22.4577C69.125 25.0104 68.1109 27.4585 66.3059 29.2636C64.5009 31.0686 62.0527 32.0827 59.5 32.0827C56.9473 32.0827 54.4991 31.0686 52.6941 29.2636C50.8891 27.4585 49.875 25.0104 49.875 22.4577V12.8327ZM49.875 54.541V64.166H69.125V54.541C69.125 51.9883 68.1109 49.5401 66.3059 47.7351C64.5009 45.9301 62.0527 44.916 59.5 44.916C56.9473 44.916 54.4991 45.9301 52.6941 47.7351C50.8891 49.5401 49.875 51.9883 49.875 54.541Z" fill="#E85D04"/>
<path d="M1.77646 107V92.4545H7.231C8.34843 92.4545 9.28593 92.6487 10.0435 93.0369C10.8058 93.4252 11.3811 93.9697 11.7694 94.6705C12.1623 95.3665 12.3588 96.1785 12.3588 97.1065C12.3588 98.0393 12.16 98.849 11.7623 99.5355C11.3693 100.217 10.7892 100.745 10.0222 101.119C9.25515 101.489 8.31291 101.673 7.19549 101.673H3.31055V99.4858H6.84038C7.49379 99.4858 8.02882 99.3958 8.44549 99.2159C8.86216 99.0312 9.16992 98.7637 9.36879 98.4134C9.57238 98.0582 9.67418 97.6226 9.67418 97.1065C9.67418 96.5904 9.57238 96.1501 9.36879 95.7855C9.16519 95.4162 8.85505 95.1368 8.43839 94.9474C8.02172 94.7533 7.48432 94.6562 6.82617 94.6562H4.4114V107H1.77646ZM9.29066 100.409L12.8915 107H9.95117L6.41424 100.409H9.29066ZM14.7843 107V92.4545H24.2445V94.6634H17.4192V98.6122H23.7544V100.821H17.4192V104.791H24.3013V107H14.7843ZM34.8375 96.4531C34.7712 95.8329 34.4919 95.3499 33.9995 95.0043C33.5118 94.6586 32.8773 94.4858 32.0961 94.4858C31.5468 94.4858 31.0757 94.5687 30.6827 94.7344C30.2897 94.9001 29.9891 95.125 29.7807 95.4091C29.5724 95.6932 29.4659 96.0175 29.4611 96.3821C29.4611 96.6851 29.5298 96.9479 29.6671 97.1705C29.8091 97.393 30.0009 97.5824 30.2424 97.7386C30.4838 97.8902 30.7514 98.018 31.0449 98.1222C31.3385 98.2263 31.6344 98.3139 31.9327 98.3849L33.2963 98.7259C33.8456 98.8537 34.3735 99.0265 34.8801 99.2443C35.3915 99.4621 35.8484 99.7367 36.2509 100.068C36.6581 100.4 36.9801 100.8 37.2168 101.268C37.4535 101.737 37.5719 102.286 37.5719 102.916C37.5719 103.768 37.3541 104.519 36.9185 105.168C36.4829 105.812 35.8532 106.316 35.0293 106.68C34.2102 107.04 33.2182 107.22 32.0534 107.22C30.9218 107.22 29.9393 107.045 29.106 106.695C28.2774 106.344 27.6287 105.833 27.16 105.161C26.696 104.488 26.445 103.669 26.4071 102.703H28.9995C29.0373 103.21 29.1936 103.631 29.4682 103.967C29.7428 104.304 30.1003 104.554 30.5407 104.72C30.9857 104.886 31.4829 104.969 32.0321 104.969C32.6051 104.969 33.1069 104.884 33.5378 104.713C33.9734 104.538 34.3143 104.296 34.5605 103.989C34.8068 103.676 34.9322 103.312 34.937 102.895C34.9322 102.516 34.821 102.204 34.6032 101.957C34.3854 101.706 34.08 101.498 33.687 101.332C33.2987 101.162 32.8442 101.01 32.3233 100.878L30.6685 100.452C29.4706 100.144 28.5236 99.6776 27.8276 99.0526C27.1363 98.4228 26.7907 97.5871 26.7907 96.5455C26.7907 95.6884 27.0227 94.938 27.4867 94.294C27.9554 93.6501 28.5923 93.1506 29.3972 92.7955C30.2021 92.4356 31.1136 92.2557 32.1316 92.2557C33.1638 92.2557 34.0681 92.4356 34.8446 92.7955C35.6259 93.1506 36.2391 93.6454 36.6841 94.2798C37.1292 94.9096 37.3588 95.634 37.373 96.4531H34.8375ZM42.5559 92.4545V107H39.921V92.4545H42.5559ZM53.3141 96.4531C53.2478 95.8329 52.9685 95.3499 52.476 95.0043C51.9883 94.6586 51.3539 94.4858 50.5726 94.4858C50.0234 94.4858 49.5523 94.5687 49.1593 94.7344C48.7663 94.9001 48.4656 95.125 48.2573 95.4091C48.0489 95.6932 47.9424 96.0175 47.9377 96.3821C47.9377 96.6851 48.0063 96.9479 48.1436 97.1705C48.2857 97.393 48.4775 97.5824 48.7189 97.7386C48.9604 97.8902 49.2279 98.018 49.5215 98.1222C49.815 98.2263 50.111 98.3139 50.4093 98.3849L51.7729 98.7259C52.3221 98.8537 52.8501 99.0265 53.3567 99.2443C53.8681 99.4621 54.325 99.7367 54.7275 100.068C55.1346 100.4 55.4566 100.8 55.6934 101.268C55.9301 101.737 56.0485 102.286 56.0485 102.916C56.0485 103.768 55.8307 104.519 55.3951 105.168C54.9595 105.812 54.3297 106.316 53.5059 106.68C52.6867 107.04 51.6948 107.22 50.53 107.22C49.3984 107.22 48.4159 107.045 47.5826 106.695C46.754 106.344 46.1053 105.833 45.6365 105.161C45.1725 104.488 44.9216 103.669 44.8837 102.703H47.476C47.5139 103.21 47.6702 103.631 47.9448 103.967C48.2194 104.304 48.5769 104.554 49.0172 104.72C49.4623 104.886 49.9595 104.969 50.5087 104.969C51.0816 104.969 51.5835 104.884 52.0144 104.713C52.45 104.538 52.7909 104.296 53.0371 103.989C53.2833 103.676 53.4088 103.312 53.4135 102.895C53.4088 102.516 53.2975 102.204 53.0797 101.957C52.8619 101.706 52.5565 101.498 52.1635 101.332C51.7753 101.162 51.3207 101.01 50.7999 100.878L49.1451 100.452C47.9471 100.144 47.0002 99.6776 46.3042 99.0526C45.6129 98.4228 45.2672 97.5871 45.2672 96.5455C45.2672 95.6884 45.4992 94.938 45.9632 94.294C46.432 93.6501 47.0688 93.1506 47.8738 92.7955C48.6787 92.4356 49.5901 92.2557 50.6081 92.2557C51.6403 92.2557 52.5447 92.4356 53.3212 92.7955C54.1025 93.1506 54.7156 93.6454 55.1607 94.2798C55.6058 94.9096 55.8354 95.634 55.8496 96.4531H53.3141ZM57.7583 94.6634V92.4545H69.3635V94.6634H64.8677V107H62.2541V94.6634H57.7583ZM71.6007 107V92.4545H81.0609V94.6634H74.2356V98.6122H80.5708V100.821H74.2356V104.791H81.1177V107H71.6007ZM95.7022 92.4545V107H93.3585L86.5048 97.0923H86.3841V107H83.7491V92.4545H86.1071L92.9537 102.369H93.0815V92.4545H95.7022ZM98.3034 107V105.359L105.761 94.6634H98.2608V92.4545H109.028V94.0952L101.578 104.791H109.07V107H98.3034ZM113.488 107H110.676L115.796 92.4545H119.049L124.177 107H121.365L117.48 95.4375H117.366L113.488 107ZM113.58 101.297H121.251V103.413H113.58V101.297Z" fill="#E85D04"/>
</svg>
