<svg width="124" height="133" viewBox="0 0 124 133" fill="none" xmlns="http://www.w3.org/2000/svg">
<rect width="124" height="133" rx="30" fill="black"/>
<path d="M40.6413 27L37.7671 28.1236C38.8153 31.2175 39.3057 34.3461 38.1559 37.4692C38.9168 38.336 39.6607 39.1919 40.4046 40.0296C42.5181 35.5844 41.9601 30.897 40.6413 27ZM36.2792 40.1024C35.1295 40.5759 34.1117 41.1768 33.1902 41.8688C37.784 47.2955 41.6727 53.0864 43.9721 58.6406C46.1193 63.867 46.914 69.0752 45.1894 73.4093L82.3519 102.346C87.0015 102.091 90.011 100.871 92.0737 99.1588C94.2378 97.3742 95.4721 94.9886 96.3682 92.166C95.8779 91.5833 95.3368 91.0187 94.7451 90.4542C90.3999 91.2737 86.5957 90.3449 83.434 88.1961C80.1371 85.9744 77.5502 82.5327 75.3523 78.5446C71.2099 71.0237 68.4202 61.4268 65.5967 53.5053C58.0729 54.3247 52.5611 53.1957 48.2328 50.9194C43.0591 48.1878 39.6607 43.9812 36.2792 40.1024ZM30.8824 44.0176C30.1097 44.9099 29.4199 45.8933 28.796 46.9495C27.0106 49.9907 25.7865 53.6874 24.7399 57.4933L42.6364 71.4243C43.6001 68.3103 43.0253 64.4133 41.1824 59.97C39.0689 54.8893 35.3324 49.2987 30.8824 44.0176ZM71.2776 52.5765C70.3984 52.7586 69.553 52.9225 68.7076 53.0682C69.3332 54.8346 69.9588 56.6557 70.5844 58.4949L74.9803 60.8805C73.8137 57.9486 72.664 55.1442 71.2776 52.5765ZM23.0424 60.2249C22.5825 60.753 22.285 61.2993 22.1311 61.8638C21.9231 62.5923 21.9502 63.3935 22.3019 64.3769L62.6886 92.4938C66.3744 95.0432 69.6883 97.1556 72.6978 98.8856L23.0424 60.2249ZM72.1229 63.0111C73.2896 66.3436 74.5238 69.6397 75.8933 72.6808L81.5066 75.3578C79.6129 72.0617 78.1589 68.7838 76.857 65.5788L72.1229 63.0111ZM78.2434 77.3609C80.2216 80.8573 82.4703 83.6799 85.0571 85.4281C86.9169 86.6846 88.9289 87.4131 91.2791 87.4859C88.7768 85.2278 86.6971 82.8969 84.9219 80.5295L78.2434 77.3609ZM98.4985 95.28C97.501 97.702 96.0977 99.9782 93.9335 101.763C92.0061 103.347 89.5376 104.531 86.3759 105.15C89.3347 106.042 91.651 106.334 93.4094 106.261C95.9286 106.152 97.3657 105.405 98.2449 104.658C99.1241 103.912 99.4622 103.165 99.6144 102.801C100.206 101.38 100.155 99.177 99.1917 96.7368C99.0057 96.2633 98.769 95.7716 98.4985 95.28Z" fill="white"/>
</svg>
