<svg width="259" height="152" viewBox="0 0 259 152" fill="none" xmlns="http://www.w3.org/2000/svg">
<path fill-rule="evenodd" clip-rule="evenodd" d="M25 98V101.5H26.75V106.75C26.75 109.071 27.6719 111.296 29.3128 112.937C30.9538 114.578 33.1794 115.5 35.5 115.5C33.1794 115.5 30.9538 116.422 29.3128 118.063C27.6719 119.704 26.75 121.929 26.75 124.25V129.5H25V133H46V129.5H44.25V124.25C44.25 121.929 43.3281 119.704 41.6872 118.063C40.0462 116.422 37.8206 115.5 35.5 115.5C36.6491 115.5 37.7869 115.274 38.8485 114.834C39.9101 114.394 40.8747 113.75 41.6872 112.937C42.4997 112.125 43.1442 111.16 43.5839 110.098C44.0237 109.037 44.25 107.899 44.25 106.75V101.5H46V98H25ZM30.25 101.5H40.75V106.75C40.75 108.142 40.1969 109.478 39.2123 110.462C38.2277 111.447 36.8924 112 35.5 112C34.1076 112 32.7723 111.447 31.7877 110.462C30.8031 109.478 30.25 108.142 30.25 106.75V101.5ZM30.25 124.25V129.5H40.75V124.25C40.75 122.858 40.1969 121.522 39.2123 120.538C38.2277 119.553 36.8924 119 35.5 119C34.1076 119 32.7723 119.553 31.7877 120.538C30.8031 121.522 30.25 122.858 30.25 124.25Z" fill="#E85D04"/>
<path d="M15.3939 43.6719C15.3541 43.2997 15.1865 43.0099 14.891 42.8026C14.5984 42.5952 14.2177 42.4915 13.749 42.4915C13.4194 42.4915 13.1367 42.5412 12.901 42.6406C12.6652 42.7401 12.4848 42.875 12.3598 43.0455C12.2348 43.2159 12.1708 43.4105 12.168 43.6293C12.168 43.8111 12.2092 43.9687 12.2916 44.1023C12.3768 44.2358 12.4919 44.3494 12.6367 44.4432C12.7816 44.5341 12.9421 44.6108 13.1183 44.6733C13.2944 44.7358 13.472 44.7884 13.651 44.831L14.4691 45.0355C14.7987 45.1122 15.1154 45.2159 15.4194 45.3466C15.7262 45.4773 16.0004 45.642 16.2419 45.8409C16.4862 46.0398 16.6794 46.2798 16.8214 46.5611C16.9635 46.8423 17.0345 47.1719 17.0345 47.5497C17.0345 48.0611 16.9038 48.5114 16.6424 48.9006C16.3811 49.2869 16.0032 49.5895 15.5089 49.8082C15.0174 50.0241 14.4223 50.1321 13.7234 50.1321C13.0444 50.1321 12.4549 50.027 11.9549 49.8168C11.4578 49.6065 11.0686 49.2997 10.7873 48.8963C10.5089 48.4929 10.3583 48.0014 10.3356 47.4219H11.891C11.9137 47.7259 12.0075 47.9787 12.1723 48.1804C12.337 48.3821 12.5515 48.5327 12.8157 48.6321C13.0828 48.7315 13.3811 48.7812 13.7106 48.7812C14.0544 48.7812 14.3555 48.7301 14.614 48.6278C14.8754 48.5227 15.0799 48.3778 15.2277 48.1932C15.3754 48.0057 15.4507 47.7869 15.4535 47.5369C15.4507 47.3097 15.3839 47.1222 15.2532 46.9744C15.1225 46.8239 14.9393 46.6989 14.7035 46.5994C14.4706 46.4972 14.1978 46.4062 13.8853 46.3267L12.8924 46.071C12.1737 45.8864 11.6055 45.6065 11.1879 45.2315C10.7731 44.8537 10.5657 44.3523 10.5657 43.7273C10.5657 43.2131 10.7049 42.7628 10.9833 42.3764C11.2646 41.9901 11.6467 41.6903 12.1296 41.4773C12.6126 41.2614 13.1595 41.1534 13.7703 41.1534C14.3896 41.1534 14.9322 41.2614 15.3981 41.4773C15.8669 41.6903 16.2348 41.9872 16.5018 42.3679C16.7689 42.7457 16.9066 43.1804 16.9152 43.6719H15.3939ZM17.5804 42.598V41.2727H24.5435V42.598H21.846V50H20.2778V42.598H17.5804ZM25.4718 50H23.7843L26.8568 41.2727H28.8085L31.8852 50H30.1977L27.8667 43.0625H27.7986L25.4718 50ZM25.5272 46.5781H30.1295V47.848H25.5272V46.5781ZM32.5547 41.2727H34.4894L37.0803 47.5966H37.1825L39.7735 41.2727H41.7081V50H40.1911V44.0043H40.1101L37.6982 49.9744H36.5646L34.1527 43.9915H34.0717V50H32.5547V41.2727ZM44.5307 41.2727V50H42.9497V41.2727H44.5307ZM52.9345 41.2727V50H51.5283L47.4161 44.0554H47.3436V50H45.7627V41.2727H47.1774L51.2854 47.2216H51.3621V41.2727H52.9345ZM55.2979 50H53.6104L56.6829 41.2727H58.6346L61.7113 50H60.0238L57.6928 43.0625H57.6246L55.2979 50ZM55.3533 46.5781H59.9556V47.848H55.3533V46.5781Z" fill="#E85D04"/>
<path d="M1.43126 149V140.273H7.1074V141.598H3.01223V143.967H6.81336V145.293H3.01223V147.675H7.14149V149H1.43126ZM15.4122 140.273V149H14.0059L9.89373 143.055H9.82129V149H8.24032V140.273H9.6551L13.7631 146.222H13.8398V140.273H15.4122ZM19.6122 149H16.6549V140.273H19.6719C20.5384 140.273 21.2827 140.447 21.9049 140.797C22.5299 141.143 23.01 141.642 23.3452 142.293C23.6804 142.943 23.848 143.722 23.848 144.628C23.848 145.537 23.679 146.318 23.3409 146.972C23.0057 147.625 22.5213 148.126 21.8878 148.476C21.2571 148.825 20.4986 149 19.6122 149ZM18.2358 147.632H19.5355C20.1435 147.632 20.6506 147.521 21.0568 147.3C21.4631 147.075 21.7685 146.741 21.973 146.298C22.1776 145.852 22.2799 145.295 22.2799 144.628C22.2799 143.96 22.1776 143.406 21.973 142.966C21.7685 142.523 21.4659 142.192 21.0654 141.973C20.6676 141.751 20.1733 141.641 19.5824 141.641H18.2358V147.632ZM30.3716 140.273H31.9526V145.974C31.9526 146.599 31.8048 147.149 31.5094 147.624C31.2168 148.098 30.8048 148.469 30.2736 148.736C29.7423 149 29.1216 149.132 28.4114 149.132C27.6983 149.132 27.0761 149 26.5449 148.736C26.0136 148.469 25.6017 148.098 25.3091 147.624C25.0165 147.149 24.8702 146.599 24.8702 145.974V140.273H26.4511V145.842C26.4511 146.206 26.5307 146.53 26.6898 146.814C26.8517 147.098 27.079 147.321 27.3716 147.483C27.6642 147.642 28.0108 147.722 28.4114 147.722C28.8119 147.722 29.1585 147.642 29.4511 147.483C29.7466 147.321 29.9739 147.098 30.133 146.814C30.292 146.53 30.3716 146.206 30.3716 145.842V140.273ZM33.1909 149V140.273H36.4637C37.1341 140.273 37.6966 140.389 38.1512 140.622C38.6086 140.855 38.9537 141.182 39.1867 141.602C39.4225 142.02 39.5404 142.507 39.5404 143.064C39.5404 143.624 39.4211 144.109 39.1824 144.521C38.9466 144.93 38.5986 145.247 38.1384 145.472C37.6782 145.693 37.1128 145.804 36.4424 145.804H34.1114V144.491H36.2293C36.6213 144.491 36.9424 144.437 37.1924 144.33C37.4424 144.219 37.627 144.058 37.7463 143.848C37.8685 143.635 37.9296 143.374 37.9296 143.064C37.9296 142.754 37.8685 142.49 37.7463 142.271C37.6242 142.05 37.4381 141.882 37.1881 141.768C36.9381 141.652 36.6157 141.594 36.2208 141.594H34.7719V149H33.1909ZM37.6995 145.045L39.86 149H38.0958L35.9736 145.045H37.6995ZM41.6364 149H39.9489L43.0213 140.273H44.973L48.0497 149H46.3622L44.0313 142.062H43.9631L41.6364 149ZM41.6918 145.578H46.294V146.848H41.6918V145.578ZM55.8911 140.273V149H54.4849L50.3726 143.055H50.3002V149H48.7192V140.273H50.134L54.242 146.222H54.3187V140.273H55.8911ZM64.6039 143.217H63.0102C62.9647 142.956 62.8809 142.724 62.7588 142.523C62.6366 142.318 62.4846 142.145 62.3028 142.003C62.121 141.861 61.9136 141.754 61.6806 141.683C61.4505 141.609 61.2019 141.572 60.9349 141.572C60.4605 141.572 60.04 141.692 59.6735 141.93C59.3071 142.166 59.0201 142.513 58.8127 142.97C58.6054 143.425 58.5017 143.98 58.5017 144.636C58.5017 145.304 58.6054 145.866 58.8127 146.324C59.023 146.778 59.3099 147.122 59.6735 147.355C60.04 147.585 60.459 147.7 60.9306 147.7C61.192 147.7 61.4363 147.666 61.6636 147.598C61.8937 147.527 62.0997 147.423 62.2815 147.287C62.4661 147.151 62.621 146.983 62.746 146.784C62.8738 146.585 62.9619 146.358 63.0102 146.102L64.6039 146.111C64.5443 146.526 64.415 146.915 64.2161 147.278C64.0201 147.642 63.763 147.963 63.4448 148.241C63.1267 148.517 62.7545 148.733 62.3284 148.889C61.9022 149.043 61.4292 149.119 60.9093 149.119C60.1423 149.119 59.4576 148.942 58.8554 148.587C58.2531 148.232 57.7786 147.719 57.4321 147.048C57.0855 146.378 56.9122 145.574 56.9122 144.636C56.9122 143.696 57.0869 142.892 57.4363 142.224C57.7857 141.554 58.2616 141.041 58.8639 140.686C59.4661 140.331 60.148 140.153 60.9093 140.153C61.3951 140.153 61.8468 140.222 62.2644 140.358C62.6821 140.494 63.0542 140.695 63.3809 140.959C63.7076 141.22 63.9761 141.541 64.1863 141.922C64.3994 142.3 64.5386 142.732 64.6039 143.217ZM65.5717 149V140.273H71.2479V141.598H67.1527V143.967H70.9538V145.293H67.1527V147.675H71.282V149H65.5717Z" fill="#E85D04"/>
<path d="M115.735 97.6719C115.695 97.2997 115.527 97.0099 115.232 96.8026C114.939 96.5952 114.558 96.4915 114.09 96.4915C113.76 96.4915 113.478 96.5412 113.242 96.6406C113.006 96.7401 112.826 96.875 112.701 97.0455C112.576 97.2159 112.512 97.4105 112.509 97.6293C112.509 97.8111 112.55 97.9687 112.632 98.1023C112.718 98.2358 112.833 98.3494 112.978 98.4432C113.122 98.5341 113.283 98.6108 113.459 98.6733C113.635 98.7358 113.813 98.7884 113.992 98.831L114.81 99.0355C115.139 99.1122 115.456 99.2159 115.76 99.3466C116.067 99.4773 116.341 99.642 116.583 99.8409C116.827 100.04 117.02 100.28 117.162 100.561C117.304 100.842 117.375 101.172 117.375 101.55C117.375 102.061 117.245 102.511 116.983 102.901C116.722 103.287 116.344 103.589 115.85 103.808C115.358 104.024 114.763 104.132 114.064 104.132C113.385 104.132 112.796 104.027 112.296 103.817C111.799 103.607 111.409 103.3 111.128 102.896C110.85 102.493 110.699 102.001 110.676 101.422H112.232C112.255 101.726 112.348 101.979 112.513 102.18C112.678 102.382 112.892 102.533 113.157 102.632C113.424 102.732 113.722 102.781 114.051 102.781C114.395 102.781 114.696 102.73 114.955 102.628C115.216 102.523 115.421 102.378 115.568 102.193C115.716 102.006 115.791 101.787 115.794 101.537C115.791 101.31 115.725 101.122 115.594 100.974C115.463 100.824 115.28 100.699 115.044 100.599C114.811 100.497 114.539 100.406 114.226 100.327L113.233 100.071C112.514 99.8864 111.946 99.6065 111.529 99.2315C111.114 98.8537 110.907 98.3523 110.907 97.7273C110.907 97.2131 111.046 96.7628 111.324 96.3764C111.605 95.9901 111.987 95.6903 112.47 95.4773C112.953 95.2614 113.5 95.1534 114.111 95.1534C114.73 95.1534 115.273 95.2614 115.739 95.4773C116.208 95.6903 116.576 95.9872 116.843 96.3679C117.11 96.7457 117.247 97.1804 117.256 97.6719H115.735ZM118.305 104V95.2727H121.577C122.248 95.2727 122.81 95.3977 123.265 95.6477C123.722 95.8977 124.067 96.2415 124.3 96.679C124.536 97.1136 124.654 97.608 124.654 98.1619C124.654 98.7216 124.536 99.2187 124.3 99.6534C124.065 100.088 123.717 100.43 123.256 100.68C122.796 100.928 122.229 101.051 121.556 101.051H119.387V99.7514H121.343C121.735 99.7514 122.056 99.6832 122.306 99.5469C122.556 99.4105 122.741 99.223 122.86 98.9844C122.982 98.7457 123.043 98.4716 123.043 98.1619C123.043 97.8523 122.982 97.5795 122.86 97.3438C122.741 97.108 122.555 96.9247 122.302 96.794C122.052 96.6605 121.729 96.5938 121.335 96.5938H119.886V104H118.305ZM125.547 104V95.2727H131.223V96.598H127.128V98.9673H130.929V100.293H127.128V102.675H131.258V104H125.547ZM132.356 104V95.2727H138.033V96.598H133.937V98.9673H137.739V100.293H133.937V102.675H138.067V104H132.356ZM142.123 104H139.165V95.2727H142.183C143.049 95.2727 143.793 95.4474 144.415 95.7969C145.04 96.1435 145.521 96.642 145.856 97.2926C146.191 97.9432 146.359 98.7216 146.359 99.6278C146.359 100.537 146.19 101.318 145.852 101.972C145.516 102.625 145.032 103.126 144.398 103.476C143.768 103.825 143.009 104 142.123 104ZM140.746 102.632H142.046C142.654 102.632 143.161 102.521 143.567 102.3C143.974 102.075 144.279 101.741 144.484 101.298C144.688 100.852 144.79 100.295 144.79 99.6278C144.79 98.9602 144.688 98.4062 144.484 97.9659C144.279 97.5227 143.977 97.1918 143.576 96.973C143.178 96.7514 142.684 96.6406 142.093 96.6406H140.746V102.632Z" fill="#E85D04"/>
<path d="M207.776 149H206.088L209.161 140.273H211.112L214.189 149H212.501L210.17 142.062H210.102L207.776 149ZM207.831 145.578H212.433V146.848H207.831V145.578ZM220.295 143.06C220.224 142.83 220.126 142.624 220.001 142.442C219.879 142.257 219.731 142.099 219.558 141.969C219.387 141.838 219.191 141.74 218.97 141.675C218.748 141.607 218.507 141.572 218.245 141.572C217.776 141.572 217.359 141.69 216.992 141.926C216.626 142.162 216.338 142.509 216.127 142.966C215.92 143.42 215.816 143.974 215.816 144.628C215.816 145.287 215.92 145.845 216.127 146.303C216.335 146.76 216.623 147.108 216.992 147.347C217.362 147.582 217.791 147.7 218.279 147.7C218.722 147.7 219.106 147.615 219.43 147.445C219.757 147.274 220.008 147.033 220.184 146.72C220.36 146.405 220.448 146.036 220.448 145.612L220.806 145.668H218.437V144.432H221.978V145.48C221.978 146.227 221.819 146.874 221.501 147.419C221.183 147.964 220.745 148.385 220.188 148.68C219.632 148.973 218.992 149.119 218.271 149.119C217.467 149.119 216.761 148.939 216.153 148.578C215.548 148.214 215.075 147.699 214.734 147.031C214.396 146.361 214.227 145.565 214.227 144.645C214.227 143.94 214.326 143.311 214.525 142.757C214.727 142.203 215.008 141.733 215.369 141.347C215.73 140.957 216.153 140.662 216.639 140.46C217.124 140.256 217.653 140.153 218.224 140.153C218.707 140.153 219.157 140.224 219.575 140.366C219.992 140.506 220.363 140.705 220.687 140.963C221.014 141.222 221.282 141.528 221.492 141.884C221.703 142.239 221.84 142.631 221.906 143.06H220.295ZM224.608 140.273V149H223.027V140.273H224.608ZM225.84 149V140.273H227.421V147.675H231.265V149H225.84ZM233.738 140.273V149H232.157V140.273H233.738ZM234.586 141.598V140.273H241.549V141.598H238.852V149H237.284V141.598H234.586ZM241.815 140.273H243.6L245.735 144.134H245.821L247.956 140.273H249.741L246.566 145.744V149H244.99V145.744L241.815 140.273Z" fill="#E85D04"/>
<path d="M202.35 43.6719C202.311 43.2997 202.143 43.0099 201.848 42.8026C201.555 42.5952 201.174 42.4915 200.706 42.4915C200.376 42.4915 200.093 42.5412 199.858 42.6406C199.622 42.7401 199.441 42.875 199.316 43.0455C199.191 43.2159 199.127 43.4105 199.125 43.6293C199.125 43.8111 199.166 43.9687 199.248 44.1023C199.333 44.2358 199.448 44.3494 199.593 44.4432C199.738 44.5341 199.899 44.6108 200.075 44.6733C200.251 44.7358 200.429 44.7884 200.608 44.831L201.426 45.0355C201.755 45.1122 202.072 45.2159 202.376 45.3466C202.683 45.4773 202.957 45.642 203.198 45.8409C203.443 46.0398 203.636 46.2798 203.778 46.5611C203.92 46.8423 203.991 47.1719 203.991 47.5497C203.991 48.0611 203.86 48.5114 203.599 48.9006C203.338 49.2869 202.96 49.5895 202.465 49.8082C201.974 50.0241 201.379 50.1321 200.68 50.1321C200.001 50.1321 199.411 50.027 198.911 49.8168C198.414 49.6065 198.025 49.2997 197.744 48.8963C197.465 48.4929 197.315 48.0014 197.292 47.4219H198.848C198.87 47.7259 198.964 47.9787 199.129 48.1804C199.294 48.3821 199.508 48.5327 199.772 48.6321C200.039 48.7315 200.338 48.7812 200.667 48.7812C201.011 48.7812 201.312 48.7301 201.571 48.6278C201.832 48.5227 202.036 48.3778 202.184 48.1932C202.332 48.0057 202.407 47.7869 202.41 47.5369C202.407 47.3097 202.34 47.1222 202.21 46.9744C202.079 46.8239 201.896 46.6989 201.66 46.5994C201.427 46.4972 201.154 46.4062 200.842 46.3267L199.849 46.071C199.13 45.8864 198.562 45.6065 198.144 45.2315C197.73 44.8537 197.522 44.3523 197.522 43.7273C197.522 43.2131 197.661 42.7628 197.94 42.3764C198.221 41.9901 198.603 41.6903 199.086 41.4773C199.569 41.2614 200.116 41.1534 200.727 41.1534C201.346 41.1534 201.889 41.2614 202.355 41.4773C202.823 41.6903 203.191 41.9872 203.458 42.3679C203.725 42.7457 203.863 43.1804 203.872 43.6719H202.35ZM204.537 42.598V41.2727H211.5V42.598H208.803V50H207.234V42.598H204.537ZM212.362 50V41.2727H215.635C216.306 41.2727 216.868 41.3892 217.323 41.6222C217.78 41.8551 218.125 42.1818 218.358 42.6023C218.594 43.0199 218.712 43.5071 218.712 44.0639C218.712 44.6236 218.592 45.1094 218.354 45.5213C218.118 45.9304 217.77 46.2472 217.31 46.4716C216.85 46.6932 216.284 46.804 215.614 46.804H213.283V45.4915H215.401C215.793 45.4915 216.114 45.4375 216.364 45.3295C216.614 45.2187 216.798 45.0582 216.918 44.848C217.04 44.6349 217.101 44.3736 217.101 44.0639C217.101 43.7543 217.04 43.4901 216.918 43.2713C216.796 43.0497 216.61 42.8821 216.36 42.7685C216.11 42.652 215.787 42.5938 215.392 42.5938H213.943V50H212.362ZM216.871 46.0455L219.031 50H217.267L215.145 46.0455H216.871ZM219.687 50V41.2727H225.363V42.598H221.268V44.9673H225.069V46.2926H221.268V48.6747H225.397V50H219.687ZM233.668 41.2727V50H232.262L228.15 44.0554H228.077V50H226.496V41.2727H227.911L232.019 47.2216H232.096V41.2727H233.668ZM240.757 44.0597C240.686 43.8295 240.588 43.6236 240.463 43.4418C240.341 43.2571 240.193 43.0994 240.02 42.9688C239.85 42.8381 239.654 42.7401 239.432 42.6747C239.21 42.6065 238.969 42.5724 238.708 42.5724C238.239 42.5724 237.821 42.6903 237.455 42.9261C237.088 43.1619 236.8 43.5085 236.59 43.9659C236.382 44.4205 236.279 44.9744 236.279 45.6278C236.279 46.2869 236.382 46.8452 236.59 47.3026C236.797 47.7599 237.085 48.108 237.455 48.3466C237.824 48.5824 238.253 48.7003 238.742 48.7003C239.185 48.7003 239.568 48.6151 239.892 48.4446C240.219 48.2741 240.47 48.0327 240.646 47.7202C240.823 47.4048 240.911 47.0355 240.911 46.6122L241.269 46.6676H238.899V45.4318H242.44V46.4801C242.44 47.2273 242.281 47.8736 241.963 48.419C241.645 48.9645 241.208 49.3849 240.651 49.6804C240.094 49.973 239.455 50.1193 238.733 50.1193C237.929 50.1193 237.223 49.9389 236.615 49.5781C236.01 49.2145 235.537 48.6989 235.196 48.0312C234.858 47.3608 234.689 46.5653 234.689 45.6449C234.689 44.9403 234.788 44.3111 234.987 43.7571C235.189 43.2031 235.47 42.733 235.831 42.3466C236.192 41.9574 236.615 41.6619 237.101 41.4602C237.587 41.2557 238.115 41.1534 238.686 41.1534C239.169 41.1534 239.619 41.2244 240.037 41.3665C240.455 41.5057 240.825 41.7045 241.149 41.9631C241.476 42.2216 241.744 42.5284 241.955 42.8835C242.165 43.2386 242.303 43.6307 242.368 44.0597H240.757ZM243.489 50V41.2727H245.07V44.9673H249.114V41.2727H250.699V50H249.114V46.2926H245.07V50H243.489ZM251.555 42.598V41.2727H258.518V42.598H255.821V50H254.253V42.598H251.555Z" fill="#E85D04"/>
<path d="M226.254 26.0985C227.263 22.1449 230.79 19.3208 234.853 19.7877C238.721 20.2321 241.796 23.764 241.99 27.9662C242.039 29.0732 241.9 30.1351 241.601 31.1216C241.42 31.7241 240.877 32.1232 240.286 32.1232H219.567C216.055 32.1232 213.421 28.6447 214.11 24.917L218.344 2H226.692L229.475 7.27156L223.513 11.8879L221.822 9.5308M223.52 11.8879L226.692 24.5924" stroke="#E85D04" stroke-width="3" stroke-miterlimit="2" stroke-linecap="round" stroke-linejoin="round"/>
<path d="M33.9167 35.1656C33.7779 35.1909 33.6357 35.1909 33.4968 35.1656C33.1939 35.0742 32.9291 34.8862 32.7428 34.6304C32.5564 34.3746 32.4588 34.0649 32.4647 33.7485V33.5561L34.0392 22.4469H26.4464C26.1904 22.4471 25.9392 22.3771 25.7202 22.2445C25.5012 22.1118 25.3227 21.9216 25.2043 21.6946C25.0705 21.4665 25 21.2068 25 20.9423C25 20.6779 25.0705 20.4182 25.2043 20.1901L28.7033 14.0844L35.8761 2.67779C36.0355 2.40865 36.2815 2.20154 36.5739 2.09032C36.8662 1.9791 37.1877 1.97034 37.4857 2.06547C37.7886 2.15693 38.0534 2.34486 38.2397 2.60066C38.4261 2.85646 38.5237 3.16614 38.5178 3.48255V3.67499L36.9433 14.7842H44.5536C44.8096 14.784 45.0608 14.854 45.2798 14.9866C45.4988 15.1193 45.6773 15.3094 45.7957 15.5365C45.9295 15.7646 46 16.0243 46 16.2887C46 16.5532 45.9295 16.8129 45.7957 17.041L42.2967 23.1467L35.1239 34.5533C34.992 34.7503 34.8118 34.9101 34.6004 35.0173C34.389 35.1246 34.1536 35.1756 33.9167 35.1656ZM28.3884 19.7527H35.3863C35.5793 19.755 35.7699 19.7953 35.9473 19.8712C36.1248 19.9472 36.2855 20.0574 36.4203 20.1955C36.5552 20.3336 36.6615 20.4969 36.7332 20.676C36.8049 20.8552 36.8407 21.0468 36.8384 21.2398V21.4322L35.8062 28.675L40.1799 21.6771L42.6991 17.3384H35.7012C35.5082 17.3361 35.3176 17.2959 35.1401 17.2199C34.9627 17.1439 34.802 17.0337 34.6671 16.8957C34.5323 16.7576 34.426 16.5943 34.3543 16.4151C34.2825 16.2359 34.2468 16.0444 34.2491 15.8514V15.6589L35.2813 8.41608L30.9076 15.414L28.3884 19.7527Z" fill="#E85D04"/>
<path d="M235.375 105C236.303 105 237.193 104.631 237.85 103.975C238.506 103.318 238.875 102.428 238.875 101.5C238.875 100.572 238.506 99.6815 237.85 99.0251C237.193 98.3687 236.303 98 235.375 98C234.447 98 233.557 98.3687 232.9 99.0251C232.244 99.6815 231.875 100.572 231.875 101.5C231.875 102.428 232.244 103.318 232.9 103.975C233.557 104.631 234.447 105 235.375 105ZM229.075 129.325L230.825 121.625L234.5 125.125V135.625H238V122.5L234.325 119L235.375 113.75C236.574 115.124 238.053 116.226 239.714 116.98C241.374 117.735 243.176 118.125 245 118.125V114.625C241.92 114.677 239.05 113.068 237.475 110.425L235.725 107.625C235.095 106.575 233.975 105.875 232.75 105.875C232.225 105.875 231.875 106.05 231.35 106.05L222.25 109.9V118.125H225.75V112.175L228.9 110.95L226.1 125.125L217.525 123.375L216.825 126.875L229.075 129.325ZM213.5 111.125C213.036 111.125 212.591 110.941 212.263 110.612C211.934 110.284 211.75 109.839 211.75 109.375C211.75 108.911 211.934 108.466 212.263 108.138C212.591 107.809 213.036 107.625 213.5 107.625H218.75V111.125H213.5ZM215.25 104.125C214.786 104.125 214.341 103.941 214.013 103.612C213.684 103.284 213.5 102.839 213.5 102.375C213.5 101.911 213.684 101.466 214.013 101.138C214.341 100.809 214.786 100.625 215.25 100.625H224V104.125H215.25ZM211.75 118.125C211.286 118.125 210.841 117.941 210.513 117.612C210.184 117.284 210 116.839 210 116.375C210 115.911 210.184 115.466 210.513 115.138C210.841 114.809 211.286 114.625 211.75 114.625H218.75V118.125H211.75Z" fill="#E85D04"/>
<path d="M128 63.7334C128.315 63.7334 128.617 63.8585 128.84 64.0812C129.062 64.3039 129.187 64.606 129.187 64.9209V68.4834C129.187 68.7983 129.062 69.1004 128.84 69.3231C128.617 69.5458 128.315 69.6709 128 69.6709C127.685 69.6709 127.383 69.5458 127.16 69.3231C126.938 69.1004 126.812 68.7983 126.812 68.4834V64.9209C126.812 64.606 126.938 64.3039 127.16 64.0812C127.383 63.8585 127.685 63.7334 128 63.7334ZM117.863 67.8469C118.086 67.6243 118.388 67.4992 118.703 67.4992C119.018 67.4992 119.32 67.6243 119.543 67.8469L121.716 70.0176C121.826 70.1281 121.914 70.2591 121.973 70.4034C122.033 70.5476 122.064 70.7023 122.064 70.8584C122.064 71.0145 122.033 71.1692 121.973 71.3134C121.914 71.4577 121.826 71.5887 121.716 71.6991C121.605 71.8096 121.474 71.8971 121.33 71.9569C121.186 72.0166 121.031 72.0474 120.875 72.0474C120.719 72.0474 120.564 72.0166 120.42 71.9569C120.276 71.8971 120.145 71.8096 120.034 71.6991L117.863 69.526C117.641 69.3033 117.516 69.0013 117.516 68.6865C117.516 68.3716 117.641 68.0696 117.863 67.8469ZM113.75 77.9834C113.75 77.6685 113.875 77.3664 114.098 77.1437C114.321 76.921 114.623 76.7959 114.937 76.7959H118.704C119.019 76.7959 119.321 76.921 119.544 77.1437C119.767 77.3664 119.892 77.6685 119.892 77.9834C119.892 78.2983 119.767 78.6004 119.544 78.8231C119.321 79.0458 119.019 79.1709 118.704 79.1709H114.937C114.623 79.1709 114.321 79.0458 114.098 78.8231C113.875 78.6004 113.75 78.2983 113.75 77.9834ZM136.312 77.9834C136.312 77.6685 136.438 77.3664 136.66 77.1437C136.883 76.921 137.185 76.7959 137.5 76.7959H141.062C141.377 76.7959 141.679 76.921 141.902 77.1437C142.125 77.3664 142.25 77.6685 142.25 77.9834C142.25 78.2983 142.125 78.6004 141.902 78.8231C141.679 79.0458 141.377 79.1709 141.062 79.1709H137.5C137.185 79.1709 136.883 79.0458 136.66 78.8231C136.438 78.6004 136.312 78.2983 136.312 77.9834ZM138.103 67.8991C137.939 67.7355 137.719 67.6397 137.487 67.6309C137.255 67.6221 137.028 67.7009 136.852 67.8516L126.924 76.3446C126.693 76.5395 126.505 76.7808 126.373 77.0528C126.241 77.3249 126.167 77.6216 126.157 77.9239C126.146 78.2262 126.2 78.5273 126.313 78.8077C126.426 79.0881 126.597 79.3416 126.815 79.5517C127.032 79.7619 127.292 79.924 127.576 80.0277C127.86 80.1314 128.163 80.1743 128.464 80.1536C128.766 80.133 129.06 80.0492 129.328 79.9077C129.595 79.7663 129.83 79.5703 130.016 79.3324L138.172 69.127C138.314 68.9494 138.385 68.7257 138.373 68.4987C138.36 68.2718 138.264 68.0574 138.103 67.8968V67.8991Z" fill="#E85D04"/>
<path fill-rule="evenodd" clip-rule="evenodd" d="M109 77.9829C109.002 75.218 109.608 72.4868 110.775 69.9803C111.943 67.4737 113.643 65.252 115.757 63.4703C117.872 61.6887 120.349 60.39 123.018 59.6649C125.686 58.9399 128.48 58.8059 131.205 59.2723C133.931 59.7388 136.521 60.7945 138.797 62.3656C141.072 63.9368 142.977 65.9856 144.378 68.3691C145.78 70.7525 146.644 73.4131 146.911 76.1652C147.178 78.9172 146.841 81.6944 145.924 84.3028C144.874 87.2787 141.542 88.1076 138.961 87.2716C135.859 86.2669 131.503 85.1079 128 85.1079C124.499 85.1079 120.139 86.2669 117.039 87.2716C114.458 88.1076 111.126 87.2787 110.076 84.3028C109.361 82.2725 108.998 80.1353 109 77.9829ZM128 61.3579C125.341 61.3573 122.72 61.9944 120.358 63.216C117.997 64.4375 115.962 66.2078 114.426 68.3783C112.89 70.5487 111.896 73.056 111.53 75.6897C111.163 78.3234 111.433 81.0067 112.318 83.5143C112.8 84.8799 114.51 85.5948 116.308 85.0106C119.443 83.9988 124.1 82.7329 128 82.7329C131.9 82.7329 136.56 83.9964 139.692 85.0129C141.49 85.5948 143.2 84.8799 143.682 83.5143C144.567 81.0067 144.837 78.3234 144.47 75.6897C144.104 73.056 143.11 70.5487 141.574 68.3783C140.038 66.2078 138.003 64.4375 135.642 63.216C133.28 61.9944 130.659 61.3573 128 61.3579Z" fill="#E85D04"/>
</svg>
