<svg width="100" height="96" viewBox="0 0 100 96" fill="none" xmlns="http://www.w3.org/2000/svg">
<path d="M3.81037 76.4545L7.59588 87.9034H7.74503L11.5234 76.4545H14.4212L9.29332 91H6.04048L0.919744 76.4545H3.81037ZM16.337 91V76.4545H25.7972V78.6634H18.9719V82.6122H25.3072V84.821H18.9719V88.7912H25.854V91H16.337ZM28.4854 91V76.4545H31.1204V88.7912H37.5266V91H28.4854ZM52.2443 83.7273C52.2443 85.2945 51.9508 86.6368 51.3636 87.7543C50.7813 88.867 49.9858 89.7192 48.9773 90.3111C47.9735 90.9029 46.8348 91.1989 45.5611 91.1989C44.2874 91.1989 43.1463 90.9029 42.1378 90.3111C41.134 89.7145 40.3385 88.8598 39.7514 87.7472C39.169 86.6297 38.8778 85.2898 38.8778 83.7273C38.8778 82.16 39.169 80.8201 39.7514 79.7074C40.3385 78.59 41.134 77.7353 42.1378 77.1435C43.1463 76.5516 44.2874 76.2557 45.5611 76.2557C46.8348 76.2557 47.9735 76.5516 48.9773 77.1435C49.9858 77.7353 50.7813 78.59 51.3636 79.7074C51.9508 80.8201 52.2443 82.16 52.2443 83.7273ZM49.5952 83.7273C49.5952 82.6241 49.4223 81.6937 49.0767 80.9361C48.7358 80.1738 48.2623 79.5985 47.6562 79.2102C47.0502 78.8172 46.3518 78.6207 45.5611 78.6207C44.7704 78.6207 44.072 78.8172 43.4659 79.2102C42.8598 79.5985 42.384 80.1738 42.0384 80.9361C41.6974 81.6937 41.527 82.6241 41.527 83.7273C41.527 84.8305 41.6974 85.7633 42.0384 86.5256C42.384 87.2831 42.8598 87.8584 43.4659 88.2514C44.072 88.6397 44.7704 88.8338 45.5611 88.8338C46.3518 88.8338 47.0502 88.6397 47.6562 88.2514C48.2623 87.8584 48.7358 87.2831 49.0767 86.5256C49.4223 85.7633 49.5952 84.8305 49.5952 83.7273ZM67.1857 81.3622H64.5295C64.4537 80.9266 64.314 80.5407 64.1104 80.2045C63.9068 79.8636 63.6535 79.5748 63.3505 79.3381C63.0475 79.1013 62.7018 78.9238 62.3136 78.8054C61.93 78.6823 61.5157 78.6207 61.0707 78.6207C60.2799 78.6207 59.5792 78.8196 58.9684 79.2173C58.3576 79.6103 57.8794 80.188 57.5337 80.9503C57.1881 81.7079 57.0153 82.6335 57.0153 83.7273C57.0153 84.84 57.1881 85.7775 57.5337 86.5398C57.8841 87.2973 58.3623 87.8703 58.9684 88.2585C59.5792 88.642 60.2776 88.8338 61.0636 88.8338C61.4992 88.8338 61.9064 88.777 62.2852 88.6634C62.6687 88.545 63.012 88.3722 63.315 88.1449C63.6228 87.9176 63.8808 87.6383 64.0891 87.3068C64.3022 86.9754 64.449 86.5966 64.5295 86.1705L67.1857 86.1847C67.0863 86.8759 66.8709 87.5246 66.5394 88.1307C66.2127 88.7367 65.7842 89.2718 65.2539 89.7358C64.7236 90.1951 64.1033 90.5549 63.3931 90.8153C62.6829 91.071 61.8945 91.1989 61.0281 91.1989C59.7496 91.1989 58.6085 90.9029 57.6048 90.3111C56.601 89.7192 55.8103 88.8646 55.2326 87.7472C54.6549 86.6297 54.3661 85.2898 54.3661 83.7273C54.3661 82.16 54.6573 80.8201 55.2397 79.7074C55.8221 78.59 56.6152 77.7353 57.619 77.1435C58.6228 76.5516 59.7591 76.2557 61.0281 76.2557C61.8377 76.2557 62.5906 76.3693 63.2866 76.5966C63.9826 76.8239 64.6029 77.1577 65.1474 77.598C65.6919 78.0336 66.1393 78.5687 66.4897 79.2031C66.8448 79.8329 67.0768 80.5526 67.1857 81.3622ZM72.2337 76.4545V91H69.5987V76.4545H72.2337ZM74.4478 78.6634V76.4545H86.0529V78.6634H81.5572V91H78.9435V78.6634H74.4478ZM88.4002 91H85.5877L90.7085 76.4545H93.9613L99.0891 91H96.2766L92.3917 79.4375H92.2781L88.4002 91ZM88.4925 85.2969H96.163V87.4134H88.4925V85.2969ZM91.3974 75.0199L89.217 71.7741H91.7383L93.3221 75.0199H91.3974Z" fill="#E85D04"/>
<path d="M52 8.46973C52.5636 8.46973 53.1041 8.69361 53.5026 9.09212C53.9011 9.49064 54.125 10.0311 54.125 10.5947V16.9697C54.125 17.5333 53.9011 18.0738 53.5026 18.4723C53.1041 18.8708 52.5636 19.0947 52 19.0947C51.4364 19.0947 50.8959 18.8708 50.4974 18.4723C50.0989 18.0738 49.875 17.5333 49.875 16.9697V10.5947C49.875 10.0311 50.0989 9.49064 50.4974 9.09212C50.8959 8.69361 51.4364 8.46973 52 8.46973ZM33.861 15.8307C34.2595 15.4323 34.7999 15.2086 35.3634 15.2086C35.9268 15.2086 36.4673 15.4323 36.8657 15.8307L40.7545 19.7152C40.9521 19.9128 41.1088 20.1474 41.2157 20.4055C41.3226 20.6636 41.3777 20.9403 41.3777 21.2197C41.3777 21.4991 41.3226 21.7758 41.2157 22.034C41.1088 22.2921 40.9521 22.5267 40.7545 22.7242C40.5569 22.9218 40.3224 23.0785 40.0642 23.1854C39.8061 23.2924 39.5294 23.3474 39.25 23.3474C38.9706 23.3474 38.6939 23.2924 38.4358 23.1854C38.1776 23.0785 37.9431 22.9218 37.7455 22.7242L33.861 18.8355C33.4626 18.437 33.2388 17.8966 33.2388 17.3331C33.2388 16.7696 33.4626 16.2292 33.861 15.8307ZM26.5 33.9697C26.5 33.4061 26.7239 32.8656 27.1224 32.4671C27.5209 32.0686 28.0614 31.8447 28.625 31.8447H35.3655C35.9291 31.8447 36.4696 32.0686 36.8681 32.4671C37.2666 32.8656 37.4905 33.4061 37.4905 33.9697C37.4905 34.5333 37.2666 35.0738 36.8681 35.4723C36.4696 35.8708 35.9291 36.0947 35.3655 36.0947H28.625C28.0614 36.0947 27.5209 35.8708 27.1224 35.4723C26.7239 35.0738 26.5 34.5333 26.5 33.9697ZM66.875 33.9697C66.875 33.4061 67.0989 32.8656 67.4974 32.4671C67.8959 32.0686 68.4364 31.8447 69 31.8447H75.375C75.9386 31.8447 76.4791 32.0686 76.8776 32.4671C77.2761 32.8656 77.5 33.4061 77.5 33.9697C77.5 34.5333 77.2761 35.0738 76.8776 35.4723C76.4791 35.8708 75.9386 36.0947 75.375 36.0947H69C68.4364 36.0947 67.8959 35.8708 67.4974 35.4723C67.0989 35.0738 66.875 34.5333 66.875 33.9697ZM70.0795 15.9242C69.7851 15.6313 69.3912 15.46 68.9762 15.4442C68.5612 15.4285 68.1555 15.5695 67.8397 15.8392L50.0747 31.0372C49.6608 31.386 49.3247 31.8177 49.0882 32.3045C48.8516 32.7913 48.7199 33.3224 48.7015 33.8633C48.683 34.4042 48.7784 34.943 48.9813 35.4447C49.1842 35.9465 49.4901 36.4001 49.8794 36.7762C50.2686 37.1523 50.7325 37.4425 51.2409 37.628C51.7493 37.8136 52.2911 37.8903 52.831 37.8533C53.371 37.8163 53.8972 37.6664 54.3756 37.4133C54.854 37.1601 55.2739 36.8094 55.6082 36.3837L70.2027 18.1215C70.4566 17.8036 70.5845 17.4033 70.5617 16.9972C70.539 16.591 70.3673 16.2075 70.0795 15.92V15.9242Z" fill="#E85D04"/>
<path fill-rule="evenodd" clip-rule="evenodd" d="M18 33.9695C18.0045 29.0216 19.0888 24.1344 21.1772 19.6489C23.2656 15.1634 26.3079 11.1878 30.0916 7.99956C33.8753 4.81134 38.3093 2.48737 43.084 1.18987C47.8587 -0.107634 52.8591 -0.347389 57.736 0.487338C62.6129 1.32207 67.2489 3.21116 71.3203 6.02274C75.3917 8.83432 78.8003 12.5006 81.3084 16.7657C83.8164 21.0308 85.3633 25.7919 85.8411 30.7166C86.3189 35.6414 85.7161 40.611 84.0748 45.2787C82.1963 50.604 76.2335 52.0872 71.6138 50.5912C66.0633 48.7935 58.2688 46.7195 52 46.7195C45.7355 46.7195 37.9325 48.7935 32.3863 50.5912C27.7665 52.0872 21.8038 50.604 19.9253 45.2787C18.6466 41.6455 17.9956 37.8211 18 33.9695ZM52 4.21947C47.2416 4.21824 42.5523 5.35844 38.3257 7.54438C34.0991 9.73032 30.4585 12.8982 27.7094 16.7822C24.9604 20.6662 23.1831 25.1529 22.5267 29.8658C21.8704 34.5788 22.3541 39.3804 23.9373 43.8677C24.8 46.3115 27.86 47.5907 31.0773 46.5452C36.6873 44.7347 45.0215 42.4695 52 42.4695C58.9785 42.4695 67.317 44.7305 72.9228 46.5495C76.14 47.5907 79.2 46.3115 80.0628 43.8677C81.646 39.3804 82.1297 34.5788 81.4733 29.8658C80.8169 25.1529 79.0397 20.6662 76.2906 16.7822C73.5416 12.8982 69.9009 9.73032 65.6743 7.54438C61.4477 5.35844 56.7584 4.21824 52 4.21947Z" fill="#E85D04"/>
</svg>
