<svg width="92" height="105" viewBox="0 0 92 105" fill="none" xmlns="http://www.w3.org/2000/svg">
<path d="M9.52308 89.4531C9.45679 88.8329 9.17744 88.3499 8.68501 88.0043C8.19733 87.6586 7.56286 87.4858 6.78161 87.4858C6.23236 87.4858 5.76125 87.5687 5.36825 87.7344C4.97526 87.9001 4.6746 88.125 4.46626 88.4091C4.25793 88.6932 4.1514 89.0175 4.14666 89.3821C4.14666 89.6851 4.21532 89.9479 4.35263 90.1705C4.49467 90.393 4.68643 90.5824 4.92791 90.7386C5.16939 90.8902 5.43691 91.018 5.73047 91.1222C6.02403 91.2263 6.31996 91.3139 6.61825 91.3849L7.98189 91.7259C8.53113 91.8537 9.05907 92.0265 9.5657 92.2443C10.0771 92.4621 10.534 92.7367 10.9364 93.0682C11.3436 93.3996 11.6656 93.7997 11.9023 94.2685C12.1391 94.7372 12.2575 95.2865 12.2575 95.9162C12.2575 96.7685 12.0397 97.5189 11.604 98.1676C11.1684 98.8116 10.5387 99.3158 9.71484 99.6804C8.89571 100.04 7.90376 100.22 6.73899 100.22C5.60736 100.22 4.62488 100.045 3.79155 99.6946C2.96295 99.3442 2.31428 98.8329 1.84553 98.1605C1.38151 97.4882 1.13056 96.669 1.09268 95.7031H3.68501C3.72289 96.2098 3.87914 96.6312 4.15376 96.9673C4.42839 97.3035 4.78587 97.5545 5.22621 97.7202C5.67128 97.8859 6.16844 97.9688 6.71768 97.9688C7.2906 97.9688 7.7925 97.8835 8.22337 97.7131C8.65897 97.5379 8.99988 97.2964 9.24609 96.9886C9.49231 96.6761 9.61778 96.3116 9.62251 95.8949C9.61778 95.5161 9.50651 95.2036 9.28871 94.9574C9.0709 94.7064 8.76551 94.4981 8.37251 94.3324C7.98426 94.1619 7.52971 94.0104 7.00888 93.8778L5.35405 93.4517C4.15613 93.1439 3.20916 92.6776 2.51314 92.0526C1.82185 91.4228 1.47621 90.5871 1.47621 89.5455C1.47621 88.6884 1.70822 87.938 2.17223 87.294C2.64098 86.6501 3.27782 86.1506 4.08274 85.7955C4.88767 85.4356 5.79912 85.2557 6.81712 85.2557C7.84931 85.2557 8.75367 85.4356 9.53018 85.7955C10.3114 86.1506 10.9246 86.6454 11.3697 87.2798C11.8147 87.9096 12.0444 88.634 12.0586 89.4531H9.52308ZM13.9673 87.6634V85.4545H25.5724V87.6634H21.0767V100H18.4631V87.6634H13.9673ZM27.9197 100H25.1072L30.228 85.4545H33.4808L38.6087 100H35.7962L31.9112 88.4375H31.7976L27.9197 100ZM28.0121 94.2969H35.6825V96.4134H28.0121V94.2969ZM40.5245 85.4545H43.7489L48.0671 95.9943H48.2376L52.5558 85.4545H55.7802V100H53.2518V90.0071H53.1168L49.0969 99.9574H47.2077L43.1879 89.9858H43.0529V100H40.5245V85.4545ZM61.2844 85.4545V100H58.6495V85.4545H61.2844ZM76.0909 85.4545V100H73.7472L66.8935 90.0923H66.7727V100H64.1378V85.4545H66.4957L73.3423 95.3693H73.4702V85.4545H76.0909ZM80.8299 100H78.0174L83.1381 85.4545H86.391L91.5188 100H88.7063L84.8214 88.4375H84.7077L80.8299 100ZM80.9222 94.2969H88.5927V96.4134H80.9222V94.2969Z" fill="#E85D04"/>
<path d="M43.1073 71.9589C42.8098 72.0137 42.505 72.0137 42.2075 71.9589C41.5583 71.7605 40.9909 71.3527 40.5916 70.7977C40.1924 70.2427 39.9831 69.5708 39.9957 68.8843V68.4667L43.3697 44.3633H27.0995C26.5509 44.3638 26.0126 44.2119 25.5432 43.9241C25.0739 43.6363 24.6916 43.2237 24.4378 42.7311C24.1511 42.2361 24 41.6727 24 41.0989C24 40.5251 24.1511 39.9617 24.4378 39.4667L31.9356 26.2193L47.306 1.47059C47.6476 0.886646 48.1747 0.437288 48.8012 0.195969C49.4276 -0.0453495 50.1164 -0.0643569 50.755 0.142055C51.4042 0.340483 51.9716 0.748229 52.3709 1.30324C52.7702 1.85825 52.9794 2.53015 52.9668 3.21667V3.63421L49.5928 27.7376H65.9005C66.4491 27.7371 66.9874 27.8891 67.4568 28.1769C67.9261 28.4646 68.3084 28.8773 68.5622 29.3698C68.8489 29.8648 69 30.4282 69 31.002C69 31.5758 68.8489 32.1393 68.5622 32.6342L61.0644 45.8816L45.694 70.6303C45.4115 71.0578 45.0252 71.4045 44.5722 71.6372C44.1192 71.8699 43.6148 71.9806 43.1073 71.9589ZM31.2608 38.5177H46.2563C46.6699 38.5227 47.0784 38.6101 47.4586 38.7749C47.8388 38.9398 48.1832 39.1788 48.4721 39.4784C48.7611 39.778 48.9889 40.1323 49.1426 40.5211C49.2963 40.9099 49.3728 41.3255 49.3679 41.7442V42.1617L47.1561 57.8764L56.5283 42.6931L61.9267 33.2795H46.9311C46.5176 33.2746 46.109 33.1872 45.7288 33.0223C45.3487 32.8575 45.0043 32.6185 44.7153 32.3189C44.4264 32.0193 44.1985 31.6649 44.0448 31.2762C43.8912 30.8874 43.8146 30.4718 43.8195 30.0531V29.6355L46.0314 13.9209L36.6592 29.1041L31.2608 38.5177Z" fill="#E85D04"/>
</svg>
