<svg width="46" height="35" viewBox="0 0 46 35" fill="none" xmlns="http://www.w3.org/2000/svg">
<path d="M23 5.72949C23.3812 5.72949 23.7469 5.88094 24.0165 6.15053C24.286 6.42011 24.4375 6.78574 24.4375 7.16699V11.4795C24.4375 11.8607 24.286 12.2264 24.0165 12.496C23.7469 12.7655 23.3812 12.917 23 12.917C22.6187 12.917 22.2531 12.7655 21.9835 12.496C21.7139 12.2264 21.5625 11.8607 21.5625 11.4795V7.16699C21.5625 6.78574 21.7139 6.42011 21.9835 6.15053C22.2531 5.88094 22.6187 5.72949 23 5.72949ZM10.7295 10.709C10.9991 10.4395 11.3646 10.2881 11.7458 10.2881C12.127 10.2881 12.4926 10.4395 12.7621 10.709L15.3927 13.3367C15.5264 13.4704 15.6324 13.6291 15.7048 13.8037C15.7771 13.9783 15.8143 14.1655 15.8143 14.3545C15.8143 14.5435 15.7771 14.7307 15.7048 14.9053C15.6324 15.0799 15.5264 15.2386 15.3927 15.3722C15.2591 15.5059 15.1004 15.6119 14.9258 15.6842C14.7512 15.7566 14.564 15.7938 14.375 15.7938C14.186 15.7938 13.9988 15.7566 13.8242 15.6842C13.6496 15.6119 13.4909 15.5059 13.3572 15.3722L10.7295 12.7416C10.46 12.472 10.3086 12.1065 10.3086 11.7253C10.3086 11.3441 10.46 10.9786 10.7295 10.709ZM5.75 22.9795C5.75 22.5982 5.90145 22.2326 6.17103 21.963C6.44062 21.6934 6.80625 21.542 7.1875 21.542H11.7472C12.1285 21.542 12.4941 21.6934 12.7637 21.963C13.0333 22.2326 13.1847 22.5982 13.1847 22.9795C13.1847 23.3607 13.0333 23.7264 12.7637 23.996C12.4941 24.2655 12.1285 24.417 11.7472 24.417H7.1875C6.80625 24.417 6.44062 24.2655 6.17103 23.996C5.90145 23.7264 5.75 23.3607 5.75 22.9795ZM33.0625 22.9795C33.0625 22.5982 33.2139 22.2326 33.4835 21.963C33.7531 21.6934 34.1187 21.542 34.5 21.542H38.8125C39.1937 21.542 39.5594 21.6934 39.829 21.963C40.0985 22.2326 40.25 22.5982 40.25 22.9795C40.25 23.3607 40.0985 23.7264 39.829 23.996C39.5594 24.2655 39.1937 24.417 38.8125 24.417H34.5C34.1187 24.417 33.7531 24.2655 33.4835 23.996C33.2139 23.7264 33.0625 23.3607 33.0625 22.9795ZM35.2302 10.7722C35.0311 10.5741 34.7646 10.4582 34.4839 10.4475C34.2032 10.4369 33.9287 10.5323 33.7151 10.7147L21.6976 20.9957C21.4176 21.2317 21.1903 21.5237 21.0302 21.853C20.8702 22.1823 20.7811 22.5416 20.7686 22.9075C20.7562 23.2734 20.8207 23.6379 20.9579 23.9773C21.0952 24.3167 21.3022 24.6236 21.5655 24.878C21.8288 25.1324 22.1425 25.3287 22.4865 25.4542C22.8304 25.5797 23.1969 25.6317 23.5622 25.6066C23.9275 25.5816 24.2834 25.4802 24.607 25.3089C24.9306 25.1377 25.2147 24.9004 25.4409 24.6125L35.3136 12.2586C35.4854 12.0436 35.5718 11.7728 35.5565 11.4981C35.5411 11.2233 35.4249 10.9639 35.2302 10.7694V10.7722Z" fill="#D20F2D"/>
<path fill-rule="evenodd" clip-rule="evenodd" d="M1.526e-05 22.9793C0.0030207 19.6323 0.736512 16.3262 2.14928 13.2919C3.56206 10.2576 5.62006 7.5682 8.17963 5.41146C10.7392 3.25473 13.7387 1.68263 16.9686 0.804909C20.1985 -0.0728114 23.5811 -0.234999 26.8802 0.32967C30.1793 0.894338 33.3154 2.17225 36.0696 4.07421C38.8238 5.97616 41.1296 8.45631 42.8262 11.3415C44.5228 14.2267 45.5693 17.4475 45.8925 20.7789C46.2157 24.1103 45.8079 27.4722 44.6976 30.6297C43.4269 34.2321 39.3933 35.2355 36.2681 34.2235C32.5134 33.0073 27.2406 31.6043 23 31.6043C18.7623 31.6043 13.4838 33.0073 9.73189 34.2235C6.60676 35.2355 2.57314 34.2321 1.30239 30.6297C0.437423 28.1719 -0.00298834 25.5849 1.526e-05 22.9793ZM23 2.85435C19.7811 2.85352 16.6089 3.62483 13.7497 5.10355C10.8906 6.58227 8.42779 8.72526 6.56814 11.3527C4.70849 13.9801 3.50621 17.0152 3.0622 20.2034C2.61819 23.3915 2.9454 26.6397 4.01639 29.6752C4.60001 31.3283 6.67001 32.1937 8.84639 31.4865C12.6414 30.2617 18.2793 28.7293 23 28.7293C27.7208 28.7293 33.3615 30.2588 37.1536 31.4893C39.33 32.1937 41.4 31.3283 41.9836 29.6752C43.0546 26.6397 43.3818 23.3915 42.9378 20.2034C42.4938 17.0152 41.2915 13.9801 39.4319 11.3527C37.5722 8.72526 35.1095 6.58227 32.2503 5.10355C29.3911 3.62483 26.2189 2.85352 23 2.85435Z" fill="#D20F2D"/>
</svg>
